# xmcd
#
# Track frame offsets:
#	150
#	11786
#	24898
#	35641
#	45589
#	56613
#	67441
#	82030
#	92365
#	105162
#	115427
#	129031
#	140000
#
# Disc length: 2103 seconds
#
# Revision: 0
# Processed by: cddbd v1.5.2PL0 Copyright (c) Steve Scherf et al.
# Submitted via: audiograbber 1.83.01
#
DISCID=a908350d
DTITLE=Hechtholz - Musikantenfreud
DYEAR=2007
DGENRE=Volksmusik
TTITLE0=A Musik g'hört zum Lebn
TTITLE1=Hechtholz Boarischer
TTITLE2=Mir kemmen um die Welt
TTITLE3=Musikantenfreud
TTITLE4=Mario Boarischer
TTITLE5=Weil i a Zillertaler bin
TTITLE6=Sieben Tage, sieben Nächte
TTITLE7=Boarisch Volksmusik
TTITLE8=Bei dir geh i in die Knie
TTITLE9=Sowieso Boarischer
TTITLE10=Mia spiel'n a Musik aus dem Bauch
TTITLE11=Da Aufdrahte
TTITLE12=Nur U1
EXTD=
EXTT0=
EXTT1=
EXTT2=
EXTT3=
EXTT4=
EXTT5=
EXTT6=
EXTT7=
EXTT8=
EXTT9=
EXTT10=
EXTT11=
EXTT12=
PLAYORDER=
